<svg xmlns="http://www.w3.org/2000/svg" viewBox="0 0 247.43 295.18"><defs><style>.cls-1{fill:none;}.cls-1,.cls-2,.cls-3,.cls-4{stroke:#ffffff;stroke-miterlimit:10;}.cls-1,.cls-2,.cls-3{stroke-width:4px;}.cls-2,.cls-4{fill:#0057ff;}.cls-4{stroke-width:4.17px;}</style></defs><g id="Layer_2" data-name="Layer 2"><g id="Layer_1-2" data-name="Layer 1"><path class="cls-1" d="M2,15.47V215.3a13.47,13.47,0,0,0,13.47,13.47H41.72a13.47,13.47,0,0,1,13.47,13.47v49.62a1.33,1.33,0,0,0,2.43.73l38.45-57.81a13.49,13.49,0,0,1,11.22-6h108a13.47,13.47,0,0,0,13.47-13.47V15.47A13.47,13.47,0,0,0,215.3,2H15.47A13.47,13.47,0,0,0,2,15.47Z"/><path class="cls-1" d="M100.29,70.59C41.73,51.27,43.44,96,43.44,96,40.88,122,61.41,140.28,86,152.79c33.56,17.09,74.66,23.33,74.66,23.33s-26.1-169-76.26-155.49c0,0-6.64.17-9.61,11.07s.54,14.18-21.93,14.61c0,0,22.35,0,22.39,19.22"/><polyline class="cls-1" points="148.36 173.53 160.69 219.49 205.63 194.72 159.37 168.13"/><polyline class="cls-2" points="145.75 108.32 160.94 130.58 153.53 140.66"/><path class="cls-1" d="M115.39,165.17c4.25-11.5,20.42-26.46,20.42-26.46C28.92,140.41,52.4,73.33,52.4,73.33"/><path class="cls-1" d="M55.34,70.44c4,30.14,12.24,56,59.28,60.37l-1.06,6.92"/><ellipse class="cls-2" cx="89.74" cy="40.65" rx="3.03" ry="3.54"/><path class="cls-3" d="M2,216.32C2,216.4,132.4,170,132.4,170"/><line class="cls-3" x1="164.48" y1="158.13" x2="246.78" y2="129.67"/><line class="cls-1" x1="87.52" y1="185.94" x2="102.71" y2="160.28"/><path class="cls-2" d="M20.41,228.85c-.72-6,13-23.45,13-23.45-18.23,1.53-20.54,1.3-30.84-3C3.52,210.14-2.74,229.6,20.41,228.85Z"/><path class="cls-1" d="M174.89,32.94c0,7.19,7.55,14.38,14.39,14.38"/><path class="cls-1" d="M174.89,32.94c0,7.19-7.55,14.38-14.38,14.38"/><path class="cls-1" d="M174.89,61.71c0-7.19-7.55-14.39-14.38-14.39"/><path class="cls-1" d="M174.89,61.86c0-7.19,7.55-14.38,14.39-14.38"/><path class="cls-3" d="M228.77,135.9v0Z"/><path class="cls-4" d="M205,109.18c-.11-.21-.39,0-.59.16-17.7,10-14.06,37.36-14.06,37.36S211.82,122.23,205,109.18Z"/></g></g></svg>